<?xml version="1.0" encoding="utf-8"?>
<!-- Generator: Adobe Illustrator 19.0.0, SVG Export Plug-In . SVG Version: 6.00 Build 0)  -->
<svg version="1.1" id="Capa_1" xmlns="http://www.w3.org/2000/svg" xmlns:xlink="http://www.w3.org/1999/xlink" x="0px" y="0px"
	 viewBox="99 283.3 793.5 274.6" style="enable-background:new 99 283.3 793.5 274.6;" xml:space="preserve">
<style type="text/css">
	.st0{fill:#5D6182;}
	.st1{fill:#CBC8C7;}
</style>
<g id="Capa_2">
</g>
<polygon id="XMLID_533_" class="st0" points="336,502.5 336,502.5 336,502.5 "/>
<polygon id="XMLID_441_" class="st0" points="168.7,502.6 163,502.6 148.2,461.9 150.7,454.7 "/>
<rect id="XMLID_521_" x="212.7" y="454.7" class="st0" width="5.7" height="48"/>
<polygon id="XMLID_442_" class="st0" points="151.5,456.9 150.7,454.7 131.4,502.6 133.2,502.6 "/>
<polygon id="XMLID_573_" class="st0" points="603.2,454.7 608.8,454.7 623.7,495.4 621.2,502.6 "/>
<polygon id="XMLID_572_" class="st0" points="620.4,500.4 621.2,502.6 639.4,454.7 637.6,454.7 "/>
<rect id="XMLID_518_" x="131.4" y="484" class="st0" width="29.3" height="2"/>
<polygon id="XMLID_566_" class="st0" points="451,502.6 445.3,502.6 430.4,461.9 433,454.7 "/>
<polygon id="XMLID_562_" class="st0" points="433.8,456.9 433,454.7 413.7,502.6 415.5,502.6 "/>
<rect id="XMLID_567_" x="454.9" y="454.7" class="st0" width="1.8" height="48"/>
<rect id="XMLID_568_" x="484" y="454.7" class="st0" width="1.8" height="48"/>
<rect id="XMLID_561_" x="413.7" y="484" class="st0" width="29.3" height="2"/>
<polygon id="XMLID_584_" class="st0" points="827.3,502.6 821.6,502.6 806.7,461.9 809.3,454.7 "/>
<polygon id="XMLID_583_" class="st0" points="810.1,456.9 809.3,454.7 789.9,502.6 791.8,502.6 "/>
<rect id="XMLID_582_" x="789.9" y="484" class="st0" width="29.3" height="2"/>
<rect id="XMLID_542_" x="360" y="454.7" class="st0" width="5.7" height="48"/>
<rect id="XMLID_571_" x="643.1" y="454.7" class="st0" width="5.7" height="48"/>
<rect id="XMLID_539_" x="361.5" y="500.9" class="st0" width="22.3" height="1.8"/>
<g>
	<rect id="XMLID_523_" x="247" y="454.7" class="st0" width="5.7" height="48"/>
	<rect id="XMLID_520_" x="248.5" y="454.7" class="st0" width="22.3" height="1.8"/>
	<rect id="XMLID_526_" x="248.5" y="500.9" class="st0" width="22.3" height="1.8"/>
	<rect id="XMLID_525_" x="248.5" y="469.4" class="st0" width="24.5" height="1.8"/>
</g>
<g>
	<rect id="XMLID_18_" x="540.2" y="454.7" class="st0" width="5.7" height="48"/>
	<rect id="XMLID_17_" x="541.7" y="454.7" class="st0" width="22.3" height="1.8"/>
	<rect id="XMLID_16_" x="541.7" y="500.9" class="st0" width="22.3" height="1.8"/>
	<rect id="XMLID_15_" x="541.7" y="469.4" class="st0" width="24.5" height="1.8"/>
</g>
<g>
	<rect id="XMLID_22_" x="703.6" y="454.7" class="st0" width="5.7" height="48"/>
	<rect id="XMLID_21_" x="705.1" y="454.7" class="st0" width="22.3" height="1.8"/>
	<rect id="XMLID_20_" x="705.1" y="500.9" class="st0" width="22.3" height="1.8"/>
	<rect id="XMLID_19_" x="705.1" y="469.4" class="st0" width="24.5" height="1.8"/>
</g>
<g>
	<rect id="XMLID_14_" x="387.1" y="454.7" class="st0" width="5.7" height="48"/>
	<rect id="XMLID_13_" x="388.6" y="454.7" class="st0" width="22.3" height="1.8"/>
	<rect id="XMLID_12_" x="388.6" y="500.9" class="st0" width="22.3" height="1.8"/>
	<rect id="XMLID_11_" x="388.6" y="469.4" class="st0" width="24.5" height="1.8"/>
</g>
<g id="XMLID_531_">
	<path id="XMLID_537_" class="st0" d="M240.3,480.5c-1.1-3.3-3.1-5.8-6-7.6c-0.3-0.2-0.4-0.3-0.2-0.7c4.8-6.6,1.2-15.8-6.8-17.4
		c-0.8-0.2-1.6-0.2-2.4-0.2c-7.9,0-0.9,0-8.8,0c-0.2,0-0.4,0-0.6,0c0,0.6,0,1.2,0,1.8c0.2,0.1,0.4,0.1,0.7,0.1c8,0,0.7,0,9.3,0
		c3.4,0,6.6,1.9,8,5c1.8,4,1.2,7.9-1.3,10.9c-1.9-0.8-3.8-1.3-6.2-1c-5.1,0.5-5.1,5.4-1.3,5.8c4,0.4,5.5-1.2,7.8-2.9h0.1
		c4.3,2.5,6.6,6.2,6.6,11c0,1.7,0.1,3.3-0.1,5c-0.7,5-4.9,9.2-9.9,10.2c-1.5,0.3-13.3,0.2-13.7,0.2c0,0.6,0,1.2,0,1.8
		c0.2,0.1,0.4,0.1,0.7,0.1c8.7,0,2,0,11.4,0c5.8,0,11.7-4.7,13-10.3C241.4,488.1,241.6,484.2,240.3,480.5z M226.4,476.1
		c-3.8,0-3.8-2.8-1.3-3.2c3.9-0.6,6.4,0.9,6.4,0.9S228.9,476.1,226.4,476.1z"/>
</g>
<path id="XMLID_554_" class="st0" d="M309.2,500.3c0,0-2.7-0.2-4-0.8c-1.4-0.6-2.6-1.6-3.6-2.7c-1.4-1.4-2.6-3-3.5-4.8
	c-0.1-0.2-0.1-0.3,0.1-0.4c6-2.7,9.7-7.2,10.9-13.7c0.6-3.6,0.5-7.3-0.8-10.8c-1.2-3-3.2-5.4-5.7-7.5c-3.2-2.6-6.9-4-10.9-4.6
	c-1.6-0.2-6.5-0.4-7.2-0.3h-0.3h-5.7v48h5.7v-45.1v-1.2c1.9-0.1,4.3-0.1,6.3,0.2c3.2,0.4,6.2,1.1,8.9,2.9c2.3,1.5,4.4,3.3,6,5.7
	c1.3,2.1,2,4.3,2.2,6.8c0.2,2.4,0.2,4.9-0.5,7.2c-1.5,5.1-4.7,8.8-9.6,10.9c-0.3,0.1-0.4,0.1-0.6-0.2c-0.6-1.2-1.3-2.4-2.1-3.5
	c-0.9-1.3-2.1-2.3-3.7-2.6c-2.6-0.5-4.5,1.3-4.3,3.9c0.2,1.7,1.2,2.7,2.6,3.4c1.4,0.7,2.8,0.9,4.3,1.1c0.7,0.1,1.4,0.1,2.2,0.1
	c0.2,0,0.3,0.1,0.4,0.2c0.7,1.2,1.3,2.5,2.2,3.5c1.3,1.5,2.6,3.1,4.3,4.2c1.9,1.3,4.1,1.8,6.4,1.9L309.2,500.3z M291.1,489.8
	c-0.6-0.2-1.2-0.5-1.7-0.9c-0.8-0.6-1-1.4-0.7-2.4c0.2-0.7,0.7-1.1,1.5-1.2c1,0,1.8,0.4,2.5,1.1c1.1,1.1,1.7,2.6,2.6,4
	C293.8,490.3,292.4,490.2,291.1,489.8z"/>
<path id="XMLID_585_" class="st0" d="M601.4,500.3c0,0-2.7-0.2-4-0.8c-1.4-0.6-2.6-1.6-3.6-2.7c-1.4-1.4-2.6-3-3.5-4.8
	c-0.1-0.2-0.1-0.3,0.1-0.4c6-2.7,9.7-7.2,10.9-13.7c0.6-3.6,0.5-7.3-0.8-10.8c-1.2-3-3.2-5.4-5.7-7.5c-3.2-2.6-6.9-4-10.9-4.6
	c-1.6-0.2-6.5-0.4-7.2-0.3h-0.3h-5.7v48h5.7v-45.1v-1.2c1.9-0.1,4.3-0.1,6.3,0.2c3.2,0.4,6.2,1.1,8.9,2.9c2.3,1.5,4.4,3.3,6,5.7
	c1.3,2.1,2,4.3,2.2,6.8c0.2,2.4,0.2,4.9-0.5,7.2c-1.5,5.1-4.7,8.8-9.6,10.9c-0.3,0.1-0.4,0.1-0.6-0.2c-0.6-1.2-1.3-2.4-2.1-3.5
	c-0.9-1.3-2.1-2.3-3.7-2.6c-2.6-0.5-4.5,1.3-4.3,3.9c0.2,1.7,1.2,2.7,2.6,3.4c1.4,0.7,2.8,0.9,4.3,1.1c0.7,0.1,1.4,0.1,2.2,0.1
	c0.2,0,0.3,0.1,0.4,0.2c0.7,1.2,1.3,2.5,2.2,3.5c1.3,1.5,2.6,3.1,4.3,4.2c1.9,1.3,4.1,1.8,6.4,1.9L601.4,500.3z M583.3,489.8
	c-0.6-0.2-1.2-0.5-1.7-0.9c-0.8-0.6-1-1.4-0.7-2.4c0.2-0.7,0.7-1.1,1.5-1.2c1,0,1.8,0.4,2.5,1.1c1.1,1.1,1.7,2.6,2.6,4
	C586,490.3,584.6,490.2,583.3,489.8z"/>
<g id="XMLID_447_">
	<path id="XMLID_543_" class="st0" d="M315.5,480.7c0.4,5.4,2.4,10.2,6.4,14.3c2.6,2.7,5.6,4.6,9.2,5.4c-6-1.8-9.6-7.9-10.2-13.4
		c-1.1-8.9-0.7-11.5,0-16.6c0.6-4.6,4.2-11.4,10-13.3c0.3-1.1-0.5-0.7-1.1-0.5c-2.6,1-5.7,3.6-7.6,5.7
		C317,467.4,315,473.7,315.5,480.7z"/>
	<path id="XMLID_552_" class="st0" d="M332,456.1c-1.6,0-1.5,0.3-1.1,1c1.5-0.4,3-0.6,4.7-0.6c4.8,0,10.2,2.6,14,7.1l1.4-1
		c-3.2-4.1-7.2-6.8-12.4-7.7c-1.4-0.2-2.9-0.3-4.2-0.3C336,455.6,333.3,456,332,456.1z"/>
	<path id="XMLID_555_" class="st0" d="M352,489.6c0,0-2.6,4.3-4.5,6.2c-3.1,3-6.8,4.9-11.2,5.1c-1.8,0.1-3.6-0.1-5.2-0.5
		c0.2,0.4,2.2,0.8,3.7,0.8c2.1,0,0.8,0.6-1.1,1.5c0.8,0.1,1.8,0.1,2.7,0c4.8-0.2,9-2.2,12.4-5.5c1.8-1.7,4.4-5.7,4.4-5.7L352,489.6z
		"/>
	<path id="XMLID_556_" class="st0" d="M335.4,501.1c-1.5,0-2.9-0.2-4.3-0.7c-3.3-0.8-6.3-2.7-8.8-5.4c-3.7-4-5.7-8.8-6.1-14.3
		c-0.5-7,1.4-13.3,6.2-18.5c2.4-2.6,5.2-4.3,8.3-5.2c1.4-0.5,3-0.8,4.5-0.8c1.3,0,0.8-0.7-0.8-1.6c-3.9,0.1-7.4,1.5-10.7,4
		c-4.8,3.7-7.6,8.6-8.9,14.5c-0.4,1.9-0.5,3.7-0.6,5.7c0.1,6.6,2.1,12.5,6.6,17.4c3.6,3.9,7.9,6.1,12.9,6.5
		C336.5,501.8,337.5,501.1,335.4,501.1z"/>
</g>
<g id="XMLID_1_">
	<path id="XMLID_5_" class="st0" d="M658,480.7c0.4,5.4,2.4,10.2,6.4,14.3c2.6,2.7,5.6,4.6,9.2,5.4c-6-1.8-9.6-7.9-10.2-13.4
		c-1.1-8.9-0.7-11.5,0-16.6c0.6-4.6,4.2-11.4,10-13.3c0.3-1.1-0.5-0.7-1.1-0.5c-2.6,1-5.7,3.6-7.6,5.7
		C659.5,467.4,657.5,473.7,658,480.7z"/>
	<path id="XMLID_4_" class="st0" d="M674.5,456.1c-1.6,0-1.5,0.3-1.1,1c1.5-0.4,3-0.6,4.7-0.6c4.8,0,10.2,2.6,14,7.1l1.4-1
		c-3.2-4.1-7.2-6.8-12.4-7.7c-1.4-0.2-2.9-0.3-4.2-0.3C678.5,455.6,675.8,456,674.5,456.1z"/>
	<path id="XMLID_3_" class="st0" d="M694.5,489.6c0,0-2.6,4.3-4.5,6.2c-3.1,3-6.8,4.9-11.2,5.1c-1.8,0.1-3.6-0.1-5.2-0.5
		c0.2,0.4,2.2,0.8,3.7,0.8c2.1,0,0.8,0.6-1.1,1.5c0.8,0.1,1.8,0.1,2.7,0c4.8-0.2,9-2.2,12.4-5.5c1.8-1.7,4.4-5.7,4.4-5.7
		L694.5,489.6z"/>
	<path id="XMLID_2_" class="st0" d="M677.9,501.1c-1.5,0-2.9-0.2-4.3-0.7c-3.3-0.8-6.3-2.7-8.8-5.4c-3.7-4-5.7-8.8-6.1-14.3
		c-0.5-7,1.4-13.3,6.2-18.5c2.4-2.6,5.2-4.3,8.3-5.2c1.4-0.5,3-0.8,4.5-0.8c1.3,0,0.8-0.7-0.8-1.6c-3.9,0.1-7.4,1.5-10.7,4
		c-4.8,3.7-7.6,8.6-8.9,14.5c-0.4,1.9-0.5,3.7-0.6,5.7c0.1,6.6,2.1,12.5,6.6,17.4c3.6,3.9,7.9,6.1,12.9,6.5
		C679,501.8,680,501.1,677.9,501.1z"/>
</g>
<g id="XMLID_6_">
	<path id="XMLID_10_" class="st0" d="M842,480.7c0.4,5.4,2.4,10.2,6.4,14.3c2.6,2.7,5.6,4.6,9.2,5.4c-6-1.8-9.6-7.9-10.2-13.4
		c-1.1-8.9-0.7-11.5,0-16.6c0.6-4.6,4.2-11.4,10-13.3c0.3-1.1-0.5-0.7-1.1-0.5c-2.6,1-5.7,3.6-7.6,5.7
		C843.4,467.4,841.4,473.7,842,480.7z"/>
	<path id="XMLID_9_" class="st0" d="M858.4,456.1c-1.6,0-1.5,0.3-1.1,1c1.5-0.4,3-0.6,4.7-0.6c4.8,0,10.2,2.6,14,7.1l1.4-1
		c-3.2-4.1-7.2-6.8-12.4-7.7c-1.4-0.2-2.9-0.3-4.2-0.3C862.5,455.6,859.7,456,858.4,456.1z"/>
	<path id="XMLID_8_" class="st0" d="M878.5,489.6c0,0-2.6,4.3-4.5,6.2c-3.1,3-6.8,4.9-11.2,5.1c-1.8,0.1-3.6-0.1-5.2-0.5
		c0.2,0.4,2.2,0.8,3.7,0.8c2.1,0,0.8,0.6-1.1,1.5c0.8,0.1,1.8,0.1,2.7,0c4.8-0.2,9-2.2,12.4-5.5c1.8-1.7,4.4-5.7,4.4-5.7
		L878.5,489.6z"/>
	<path id="XMLID_7_" class="st0" d="M861.9,501.1c-1.5,0-2.9-0.2-4.3-0.7c-3.3-0.8-6.3-2.7-8.8-5.4c-3.7-4-5.7-8.8-6.1-14.3
		c-0.5-7,1.4-13.3,6.2-18.5c2.4-2.6,5.2-4.3,8.3-5.2c1.4-0.5,3-0.8,4.5-0.8c1.3,0,0.8-0.7-0.8-1.6c-3.9,0.1-7.4,1.5-10.7,4
		c-4.8,3.7-7.6,8.6-8.9,14.5c-0.4,1.9-0.5,3.7-0.6,5.7c0.1,6.6,2.1,12.5,6.6,17.4c3.6,3.9,7.9,6.1,12.9,6.5
		C863,501.8,864,501.1,861.9,501.1z"/>
</g>
<path id="XMLID_529_" class="st0" d="M177.7,484.5c0-3.5,0-29.9,0-29.9H172c0,0,0.1,27.1,0.1,33.2c0,6.3,3.4,9.8,8.3,12.7
	c3.6,2.1,7.5,2.4,11.6,1.9c2.1-0.2,4.2-0.6,6-1.7c7.5-4.6,7.5-12.3,7.5-14.7c0-5,0-31.4,0-31.4h-1.9c0,0,0,21.2,0,31.2
	c0,1.8-0.2,4.4-0.7,6.1c-1.6,4.9-3.5,7.8-9.8,8.8c-2.9,0.5-6.1,0.3-8.9-0.6c-2.3-0.8-4.6-2.7-5.6-5.5
	C177.3,491.5,177.7,486.4,177.7,484.5z"/>
<path id="XMLID_596_" class="st0" d="M123.2,488.1c-1.6-4-10-7.4-13.9-10.4c-3.9-3-6-8.9-4.8-13.7c1.2-4.9,5.9-7.9,9.3-8.8
	c4.4-1.2,8.3-0.4,8.3-0.4v1.9c0,0-3.4-1.2-7.3,0.2s-6.6,3.6-6.7,7.2c-0.1,2.8,0.9,5.4,4.9,7.6s9.8,5.6,12.2,8.5
	c3.5,4.2,3.8,7.9,2.8,12.9c-0.9,4.8-4.8,7.9-9.2,9.1c-4.5,1.2-11.1,0.5-14.4-1c-4-1.9-5.2-5.4-5.5-9.8l1.3,0.3c0,0-0.3,5.5,4.2,7.9
	c5,2.6,11.5,2.3,14.9,0C122.9,497.2,125.4,493.8,123.2,488.1z"/>
<path id="XMLID_598_" class="st0" d="M528.2,488.1c-1.6-4-10-7.4-13.9-10.4c-3.9-3-6-8.9-4.8-13.7c1.2-4.9,5.9-7.9,9.3-8.8
	c4.4-1.2,8.3-0.4,8.3-0.4v1.9c0,0-3.4-1.2-7.3,0.2c-3.9,1.3-6.6,3.6-6.7,7.2c-0.1,2.8,0.9,5.4,4.9,7.6s9.8,5.6,12.2,8.5
	c3.5,4.2,3.8,7.9,2.8,12.9c-0.9,4.8-4.8,7.9-9.2,9.1c-4.5,1.2-11.1,0.5-14.4-1c-4-1.9-5.2-5.4-5.5-9.8l1.3,0.3c0,0-0.3,5.5,4.2,7.9
	c5,2.6,11.5,2.3,14.9,0C527.9,497.2,530.5,493.8,528.2,488.1z"/>
<path id="XMLID_599_" class="st0" d="M770,488.1c-1.6-4-10-7.4-13.9-10.4s-6-8.9-4.8-13.7c1.2-4.9,5.9-7.9,9.3-8.8
	c4.4-1.2,8.3-0.4,8.3-0.4v1.9c0,0-3.4-1.2-7.3,0.2s-6.6,3.6-6.7,7.2c-0.1,2.8,0.9,5.4,4.9,7.6s9.8,5.6,12.2,8.5
	c3.5,4.2,3.8,7.9,2.8,12.9c-0.9,4.8-4.8,7.9-9.2,9.1c-4.5,1.2-11.1,0.5-14.4-1c-4-1.9-5.2-5.4-5.5-9.8l1.3,0.3c0,0-0.3,5.5,4.2,7.9
	c5,2.6,11.5,2.3,14.9,0C769.7,497.2,772.2,493.8,770,488.1z"/>
<circle id="XMLID_595_" class="st0" cx="783.3" cy="500.1" r="2.6"/>
<circle id="XMLID_589_" class="st0" cx="833.3" cy="500.1" r="2.6"/>
<circle id="XMLID_605_" class="st0" cx="885.9" cy="500.1" r="2.6"/>
<rect id="XMLID_609_" x="445.2" y="304.2" transform="matrix(-0.7071 0.7071 -0.7071 -0.7071 1096.9209 255.006)" class="st1" width="100.9" height="100.9"/>
<rect id="XMLID_606_" x="440.7" y="299.7" class="st0" width="110" height="110"/>
<path id="XMLID_588_" class="st1" d="M479.6,372.8c-3.2-8.1-20.3-15.2-28.2-21.2c-7.9-6.1-12.1-18.2-9.7-27.9
	c2.5-10,12.1-16.1,18.9-17.9c9-2.4,19,1.7,19,1.7l-1.2,3.4c0,0-7.9-4.5-15.8-1.8s-13.3,7.3-13.6,14.6c-0.2,5.8,1.8,10.9,10,15.5
	c8.2,4.5,19.9,11.3,24.9,17.4c7,8.5,7.7,16.1,5.8,26.3c-1.8,9.7-9.7,16.1-18.8,18.5c-9.1,2.4-22.8,1.2-29.3-2.1
	c-6.5-3.3-12.6-10.9-13.2-20l2.7,0.6c0,0,1.2,11.8,10.6,16.1c9.4,4.2,23.4,4.6,30.3,0C479,391.3,484.1,384.3,479.6,372.8z"/>
<path id="XMLID_608_" class="st1" d="M512.5,372.8c3.2-8.1,20.3-15.2,28.2-21.2c7.9-6.1,12.1-18.2,9.7-27.9
	c-2.5-10-12.1-16.1-18.9-17.9c-9-2.4-19,1.7-19,1.7l1.2,3.4c0,0,7.9-4.5,15.8-1.8c7.9,2.7,13.3,7.3,13.6,14.6
	c0.2,5.8-1.8,10.9-10,15.5c-8.2,4.5-19.9,11.3-24.9,17.4c-7,8.5-7.7,16.1-5.8,26.3c1.8,9.7,9.7,16.1,18.8,18.5
	c9.1,2.4,22.8,1.2,29.3-2.1c6.5-3.3,12.6-10.9,13.2-20l-2.7,0.6c0,0-1.2,11.8-10.6,16.1c-9.4,4.2-23.4,4.6-30.3,0
	C513.1,391.3,507.9,384.3,512.5,372.8z"/>
<rect id="XMLID_630_" x="99" y="515.9" class="st1" width="793.5" height="5.1"/>
<g id="XMLID_680_">
	<polygon id="XMLID_726_" class="st0" points="398,535.3 400.7,535.3 407.7,554.5 406.5,557.9 	"/>
	<polygon id="XMLID_725_" class="st0" points="406.1,556.8 406.5,557.9 415,535.3 414.2,535.3 	"/>
</g>
<g id="XMLID_570_">
	<polygon id="XMLID_679_" class="st0" points="873,557.9 870.3,557.9 863.3,538.7 864.5,535.3 	"/>
	<polygon id="XMLID_678_" class="st0" points="864.9,536.4 864.5,535.3 855.4,557.9 856.3,557.9 	"/>
	<rect id="XMLID_677_" x="855.4" y="549.1" class="st0" width="13.8" height="0.9"/>
</g>
<g id="XMLID_681_">
	<polygon id="XMLID_684_" class="st0" points="701.8,557.9 699.1,557.9 692.1,538.7 693.3,535.3 	"/>
	<polygon id="XMLID_683_" class="st0" points="693.7,536.4 693.3,535.3 684.2,557.9 685.1,557.9 	"/>
	<rect id="XMLID_682_" x="684.2" y="549.1" class="st0" width="13.8" height="0.9"/>
</g>
<g id="XMLID_727_">
	<path id="XMLID_734_" class="st0" d="M146.6,547.4c0.2,2.5,1.4,5,3.3,6.9c1.3,1.3,2.8,2.1,4.5,2.5c-2.9-0.8-4.7-3.7-5-6.3
		c-0.5-4.2-0.3-5.4,0-7.8c0.3-2.1,2-5.4,4.9-6.3c-1.6,0.4-3.1,1.2-4.3,2.4C147.5,541.3,146.3,544.1,146.6,547.4z"/>
	<g id="XMLID_638_">
		<path id="XMLID_736_" class="st0" d="M166.6,544c-0.7-2.8-2.1-5.1-4.5-6.8c-1.7-1.2-3.5-1.8-5.5-1.9h-0.4c-2,0.1-3.8,0.7-5.5,1.9
			c-2.5,1.7-3.9,4.1-4.5,6.8c-0.2,0.9-0.3,1.8-0.3,2.7c0.1,3.1,1.1,5.9,3.4,8.2c1.8,1.8,4,2.9,6.6,3h1c2.6-0.2,4.8-1.2,6.6-3
			c2.3-2.3,3.3-5.1,3.4-8.2C166.9,545.7,166.8,544.9,166.6,544z M165.9,547.6c-0.2,2.5-1.2,4.8-3.1,6.7c-1.3,1.3-2.8,2.1-4.5,2.5
			c-0.6,0.2-1.3,0.3-1.9,0.3c0.1,0,0.2,0,0.2,0h-0.5c0.1,0,0.2,0,0.2,0c-0.7,0-1.3-0.1-1.9-0.3c-1.7-0.4-3.2-1.3-4.5-2.5
			c-1.9-1.9-2.9-4.1-3.1-6.7c-0.3-3.3,0.7-6.3,3.2-8.7c1.2-1.2,2.6-2,4.3-2.4c0.7-0.2,1.4-0.3,2.1-0.3c-0.1,0-0.2,0-0.2,0h0.5
			c-0.1,0-0.2,0-0.2,0c0.7,0,1.4,0.1,2.1,0.3c1.6,0.4,3.1,1.2,4.3,2.4C165.2,541.3,166.2,544.3,165.9,547.6z"/>
		<path id="XMLID_737_" class="st0" d="M156.6,557.1c-0.1,0-0.2,0-0.2,0c-0.1,0-0.2,0-0.2,0H156.6z"/>
		<path id="XMLID_739_" class="st0" d="M156.1,536.1c0.1,0,0.2,0,0.2,0c0.1,0,0.2,0,0.2,0H156.1z"/>
	</g>
</g>
<g id="XMLID_36_">
	<path id="XMLID_64_" class="st0" d="M251.7,547.5c0.2,2.5,1.7,4.9,3.6,6.8c1.3,1.3,2.8,2.1,4.5,2.5c-2.9-0.8-4.7-3.7-5-6.3
		c-0.5-4.2-0.3-5.4,0-7.8c0.3-2.1,2-5.4,4.9-6.3c-1.6,0.4-3.1,1.2-4.3,2.4C252.9,541.3,251.5,544.2,251.7,547.5z"/>
	<g id="XMLID_37_">
		<path id="XMLID_58_" class="st0" d="M272,544c-0.7-2.8-2.1-5.1-4.5-6.8c-1.7-1.2-3.5-1.8-5.5-1.9h-0.4c-2,0.1-3.8,0.7-5.5,1.9
			c-2.5,1.7-3.9,4.1-4.5,6.8c-0.2,0.9-0.3,1.8-0.3,2.7c0.1,3.1,1.1,5.9,3.4,8.2c1.8,1.8,4,2.9,6.6,3h1c2.6-0.2,4.8-1.2,6.6-3
			c2.3-2.3,3.3-5.1,3.4-8.2C272.3,545.7,272.2,544.9,272,544z M271.3,547.6c-0.2,2.5-1.2,4.8-3.1,6.7c-1.3,1.3-2.8,2.1-4.5,2.5
			c-0.6,0.2-1.3,0.3-1.9,0.3c0.1,0,0.2,0,0.2,0h-0.5c0.1,0,0.2,0,0.2,0c-0.7,0-1.3-0.1-1.9-0.3c-1.7-0.4-3.2-1.3-4.5-2.5
			c-1.9-1.9-2.9-4.1-3.1-6.7c-0.3-3.3,0.7-6.3,3.2-8.7c1.2-1.2,2.6-2,4.3-2.4c0.7-0.2,1.4-0.3,2.1-0.3c-0.1,0-0.2,0-0.2,0h0.5
			c-0.1,0-0.2,0-0.2,0c0.7,0,1.4,0.1,2.1,0.3c1.6,0.4,3.1,1.2,4.3,2.4C270.6,541.3,271.6,544.3,271.3,547.6z"/>
		<path id="XMLID_57_" class="st0" d="M262,557.1c-0.1,0-0.2,0-0.2,0c-0.1,0-0.2,0-0.2,0H262z"/>
		<path id="XMLID_56_" class="st0" d="M261.5,536.1c0.1,0,0.2,0,0.2,0c0.1,0,0.2,0,0.2,0H261.5z"/>
	</g>
</g>
<g id="XMLID_68_">
	<path id="XMLID_81_" class="st0" d="M459.8,547.6c0.2,2.5,1.5,4.8,3.4,6.7c1.3,1.3,2.8,2.1,4.5,2.5c-2.9-0.8-4.7-3.7-5-6.3
		c-0.5-4.2-0.3-5.4,0-7.8c0.3-2.1,2-5.4,4.9-6.3c-1.6,0.4-3.1,1.2-4.3,2.4C460.8,541.3,459.6,544.3,459.8,547.6z"/>
	<g id="XMLID_72_">
		<path id="XMLID_78_" class="st0" d="M479.9,544c-0.7-2.8-2.1-5.1-4.5-6.8c-1.7-1.2-3.5-1.8-5.5-1.9h-0.4c-2,0.1-3.8,0.7-5.5,1.9
			c-2.5,1.7-3.9,4.1-4.5,6.8c-0.2,0.9-0.3,1.8-0.3,2.7c0.1,3.1,1.1,5.9,3.4,8.2c1.8,1.8,4,2.9,6.6,3h1c2.6-0.2,4.8-1.2,6.6-3
			c2.3-2.3,3.3-5.1,3.4-8.2C480.2,545.7,480.1,544.9,479.9,544z M479.2,547.6c-0.2,2.5-1.2,4.8-3.1,6.7c-1.3,1.3-2.8,2.1-4.5,2.5
			c-0.6,0.2-1.3,0.3-1.9,0.3c0.1,0,0.2,0,0.2,0h-0.5c0.1,0,0.2,0,0.2,0c-0.7,0-1.3-0.1-1.9-0.3c-1.7-0.4-3.2-1.3-4.5-2.5
			c-1.9-1.9-2.9-4.1-3.1-6.7c-0.3-3.3,0.7-6.3,3.2-8.7c1.2-1.2,2.6-2,4.3-2.4c0.7-0.2,1.4-0.3,2.1-0.3c-0.1,0-0.2,0-0.2,0h0.5
			c-0.1,0-0.2,0-0.2,0c0.7,0,1.4,0.1,2.1,0.3c1.6,0.4,3.1,1.2,4.3,2.4C478.5,541.3,479.5,544.3,479.2,547.6z"/>
		<path id="XMLID_77_" class="st0" d="M469.9,557.1c-0.1,0-0.2,0-0.2,0c-0.1,0-0.2,0-0.2,0H469.9z"/>
		<path id="XMLID_76_" class="st0" d="M469.5,536.1c0.1,0,0.2,0,0.2,0c0.1,0,0.2,0,0.2,0H469.5z"/>
	</g>
</g>
<rect id="XMLID_691_" x="731.2" y="535.3" class="st0" width="0.9" height="22.5"/>
<rect id="XMLID_690_" x="744.9" y="535.3" class="st0" width="0.9" height="22.5"/>
<polygon id="XMLID_689_" class="st0" points="745.2,547.5 732.1,538.7 731.9,538.4 731.8,535.3 732.1,535.3 745.2,544.6 "/>
<path id="XMLID_708_" class="st0" d="M195.3,549.4c0-1.6,0-14,0-14h-2.7c0,0,0,12.8,0,15.6c0,2.9,1.6,4.6,3.9,5.9
	c1.7,1,3.6,1.1,5.4,0.9c1-0.1,2-0.3,2.8-0.8c3.5-2.2,3.5-5.8,3.5-6.9c0-2.4,0-14.8,0-14.8h-0.9c0,0,0,10,0,14.7
	c0,0.8-0.1,2.1-0.3,2.9c-0.7,2.3-1.7,3.7-4.6,4.1c-1.4,0.2-2.9,0.2-4.2-0.3c-1.1-0.4-2.2-1.3-2.6-2.6
	C195.2,552.7,195.3,550.3,195.3,549.4z"/>
<path id="XMLID_709_" class="st0" d="M775.5,549.4c0-1.6,0-14,0-14h-2.7c0,0,0,12.8,0,15.6c0,2.9,1.6,4.6,3.9,5.9
	c1.7,1,3.6,1.1,5.4,0.9c1-0.1,2-0.3,2.8-0.8c3.5-2.2,3.5-5.8,3.5-6.9c0-2.4,0-14.8,0-14.8h-0.9c0,0,0,10,0,14.7
	c0,0.8-0.1,2.1-0.3,2.9c-0.7,2.3-1.7,3.7-4.6,4.1c-1.4,0.2-2.9,0.2-4.2-0.3c-1.1-0.4-2.2-1.3-2.6-2.6
	C775.4,552.7,775.5,550.3,775.5,549.4z"/>
<path id="XMLID_692_" class="st0" d="M804.8,551c-0.7-1.9-4.7-3.5-6.5-4.9c-1.8-1.4-2.8-4.2-2.2-6.4c0.6-2.3,2.8-3.7,4.3-4.1
	c2.1-0.6,3.9-0.2,3.9-0.2v0.9c0,0-1.6-0.5-3.4,0.1c-1.8,0.6-3.1,1.7-3.1,3.3c-0.1,1.3,0.4,2.5,2.3,3.6c1.9,1,4.6,2.6,5.7,4
	c1.6,2,1.8,3.7,1.3,6c-0.4,2.2-2.2,3.7-4.3,4.3s-5.2,0.2-6.7-0.5c-1.9-0.9-2.4-2.5-2.6-4.6l0.6,0.1c0,0-0.1,2.6,2,3.7
	c2.3,1.2,5.4,1.1,7,0C804.7,555.3,805.9,553.7,804.8,551z"/>
<path id="XMLID_693_" class="st0" d="M493.9,551c-0.7-1.9-4.7-3.5-6.5-4.9c-1.8-1.4-2.8-4.2-2.2-6.4c0.6-2.3,2.8-3.7,4.3-4.1
	c2.1-0.6,3.9-0.2,3.9-0.2v0.9c0,0-1.6-0.5-3.4,0.1c-1.8,0.6-3.1,1.7-3.1,3.3c-0.1,1.3,0.4,2.5,2.3,3.6c1.9,1,4.6,2.6,5.7,4
	c1.6,2,1.8,3.7,1.3,6c-0.4,2.2-2.2,3.7-4.3,4.3c-2.1,0.6-5.2,0.2-6.7-0.5c-1.9-0.9-2.4-2.5-2.6-4.6l0.6,0.1c0,0-0.1,2.6,2,3.7
	c2.3,1.2,5.4,1.1,7,0C493.8,555.3,494.9,553.7,493.9,551z"/>
<path id="XMLID_694_" class="st0" d="M356.3,551c-0.7-1.9-4.7-3.5-6.5-4.9c-1.8-1.4-2.8-4.2-2.2-6.4c0.6-2.3,2.8-3.7,4.3-4.1
	c2.1-0.6,3.9-0.2,3.9-0.2v0.9c0,0-1.6-0.5-3.4,0.1c-1.8,0.6-3.1,1.7-3.1,3.3c-0.1,1.3,0.4,2.5,2.3,3.6c1.9,1,4.6,2.6,5.7,4
	c1.6,2,1.8,3.7,1.3,6c-0.4,2.2-2.2,3.7-4.3,4.3c-2.1,0.6-5.2,0.2-6.7-0.5c-1.9-0.9-2.4-2.5-2.6-4.6l0.6,0.1c0,0-0.1,2.6,2,3.7
	c2.3,1.2,5.4,1.1,7,0C356.2,555.3,357.4,553.7,356.3,551z"/>
<path id="XMLID_695_" class="st0" d="M286,551c-0.7-1.9-4.7-3.5-6.5-4.9c-1.8-1.4-2.8-4.2-2.2-6.4c0.6-2.3,2.8-3.7,4.3-4.1
	c2.1-0.6,3.9-0.2,3.9-0.2v0.9c0,0-1.6-0.5-3.4,0.1c-1.8,0.6-3.1,1.7-3.1,3.3c-0.1,1.3,0.4,2.5,2.3,3.6c1.9,1,4.6,2.6,5.7,4
	c1.6,2,1.8,3.7,1.3,6c-0.4,2.2-2.2,3.7-4.3,4.3s-5.2,0.2-6.7-0.5c-1.9-0.9-2.4-2.5-2.6-4.6l0.6,0.1c0,0-0.1,2.6,2,3.7
	c2.3,1.2,5.4,1.1,7,0C285.8,555.3,287,553.7,286,551z"/>
<path id="XMLID_629_" class="st0" d="M140.9,556.8c0,0-1.3-0.1-1.9-0.4c-0.7-0.3-1.2-0.8-1.7-1.3c-0.6-0.7-1.2-1.4-1.6-2.2
	c-0.1-0.1-0.1-0.1,0.1-0.2c2.8-1.3,4.6-3.4,5.1-6.5c0.3-1.7,0.2-3.4-0.4-5.1c-0.5-1.4-1.5-2.5-2.7-3.5c-1.5-1.2-3.2-1.9-5.1-2.2
	c-0.8-0.1-3-0.2-3.4-0.2h-0.1h-2.7v22.5h2.7v-21.2V536c0.9-0.1,2,0,2.9,0.1c1.5,0.2,2.9,0.5,4.2,1.3c1.1,0.7,2.1,1.6,2.8,2.7
	c0.6,1,1,2,1.1,3.2c0.1,1.1,0.1,2.3-0.2,3.4c-0.7,2.4-2.2,4.1-4.5,5.1c-0.1,0.1-0.2,0-0.3-0.1c-0.3-0.6-0.6-1.1-1-1.7
	c-0.4-0.6-1-1.1-1.7-1.2c-1.2-0.2-2.1,0.6-2,1.8c0.1,0.8,0.6,1.3,1.2,1.6c0.6,0.3,1.3,0.4,2,0.5c0.3,0,0.7,0.1,1,0
	c0.1,0,0.1,0,0.2,0.1c0.3,0.6,0.6,1.2,1,1.7c0.6,0.7,1.2,1.5,2,2c0.9,0.6,1.9,0.9,3,0.9V556.8z M132.4,551.8
	c-0.3-0.1-0.6-0.2-0.8-0.4c-0.4-0.3-0.5-0.7-0.3-1.1c0.1-0.3,0.3-0.5,0.7-0.6c0.5,0,0.9,0.2,1.2,0.5c0.5,0.5,0.8,1.2,1.2,1.9
	C133.7,552.1,133,552,132.4,551.8z"/>
<path id="XMLID_643_" class="st0" d="M395.7,556.8c0,0-1.3-0.1-1.9-0.4c-0.7-0.3-1.2-0.8-1.7-1.3c-0.6-0.7-1.2-1.4-1.6-2.2
	c-0.1-0.1-0.1-0.1,0.1-0.2c2.8-1.3,4.6-3.4,5.1-6.5c0.3-1.7,0.2-3.4-0.4-5.1c-0.5-1.4-1.5-2.5-2.7-3.5c-1.5-1.2-3.2-1.9-5.1-2.2
	c-0.8-0.1-3-0.2-3.4-0.2H384h-2.7v22.5h2.7v-21.2V536c0.9-0.1,2,0,2.9,0.1c1.5,0.2,2.9,0.5,4.2,1.3c1.1,0.7,2.1,1.6,2.8,2.7
	c0.6,1,1,2,1.1,3.2c0.1,1.1,0.1,2.3-0.2,3.4c-0.7,2.4-2.2,4.1-4.5,5.1c-0.1,0.1-0.2,0-0.3-0.1c-0.3-0.6-0.6-1.1-1-1.7
	c-0.4-0.6-1-1.1-1.7-1.2c-1.2-0.2-2.1,0.6-2,1.8c0.1,0.8,0.6,1.3,1.2,1.6c0.6,0.3,1.3,0.4,2,0.5c0.3,0,0.7,0.1,1,0
	c0.1,0,0.1,0,0.2,0.1c0.3,0.6,0.6,1.2,1,1.7c0.6,0.7,1.2,1.5,2,2c0.9,0.6,1.9,0.9,3,0.9V556.8z M387.2,551.8
	c-0.3-0.1-0.6-0.2-0.8-0.4c-0.4-0.3-0.5-0.7-0.3-1.1c0.1-0.3,0.3-0.5,0.7-0.6c0.5,0,0.9,0.2,1.2,0.5c0.5,0.5,0.8,1.2,1.2,1.9
	C388.4,552.1,387.8,552,387.2,551.8z"/>
<path id="XMLID_669_" class="st0" d="M843.1,556.8c0,0-1.3-0.1-1.9-0.4c-0.7-0.3-1.2-0.8-1.7-1.3c-0.6-0.7-1.2-1.4-1.6-2.2
	c-0.1-0.1-0.1-0.1,0.1-0.2c2.8-1.3,4.6-3.4,5.1-6.5c0.3-1.7,0.2-3.4-0.4-5.1c-0.5-1.4-1.5-2.5-2.7-3.5c-1.5-1.2-3.2-1.9-5.1-2.2
	c-0.8-0.1-3-0.2-3.4-0.2h-0.1h-2.7v22.5h2.7v-21.2V536c0.9-0.1,2,0,2.9,0.1c1.5,0.2,2.9,0.5,4.2,1.3c1.1,0.7,2.1,1.6,2.8,2.7
	c0.6,1,1,2,1.1,3.2c0.1,1.1,0.1,2.3-0.2,3.4c-0.7,2.4-2.2,4.1-4.5,5.1c-0.1,0.1-0.2,0-0.3-0.1c-0.3-0.6-0.6-1.1-1-1.7
	c-0.4-0.6-1-1.1-1.7-1.2c-1.2-0.2-2.1,0.6-2,1.8c0.1,0.8,0.6,1.3,1.2,1.6c0.6,0.3,1.3,0.4,2,0.5c0.3,0,0.7,0.1,1,0
	c0.1,0,0.1,0,0.2,0.1c0.3,0.6,0.6,1.2,1,1.7c0.6,0.7,1.2,1.5,2,2c0.9,0.6,1.9,0.9,3,0.9L843.1,556.8z M834.6,551.8
	c-0.3-0.1-0.6-0.2-0.8-0.4c-0.4-0.3-0.5-0.7-0.3-1.1c0.1-0.3,0.3-0.5,0.7-0.6c0.5,0,0.9,0.2,1.2,0.5c0.5,0.5,0.8,1.2,1.2,1.9
	C835.9,552.1,835.2,552,834.6,551.8z"/>
<path id="XMLID_639_" class="st0" d="M453.6,535.3h-2.7v22.5h2.7V535.3z"/>
<path id="XMLID_650_" class="st0" d="M591.7,535.3H589v22.5h2.7V535.3z"/>
<path id="XMLID_706_" class="st0" d="M421.4,535.3h-2.7v22.5h2.7V535.3z"/>
<path id="XMLID_663_" class="st0" d="M644.4,535.3h-2.7v22.5h2.7V535.3z"/>
<path id="XMLID_89_" class="st0" d="M679.9,535.3h-2.7l-12.9,22.5h2.7L679.9,535.3z"/>
<path id="XMLID_672_" class="st0" d="M851.4,535.3h-2.7v22.5h2.7V535.3z"/>
<path id="XMLID_667_" class="st0" d="M725.6,535.3h-2.7v22.5h2.7V535.3z"/>
<path id="XMLID_636_" class="st0" d="M110.7,535.3H108v22.5h2.7V535.3z"/>
<path id="XMLID_641_" class="st0" d="M109.9,536.3c0,0,4.2-0.6,7.7,1.6c3.4,2.1,3.6,6.2,3.6,7.3c0,1.7-1.2,4.7-3.5,5.9
	c-2.3,1.2-7.8,0.8-7.8,0.8v1c0,0,1.9,0,3.2,0c4.5-0.1,6.3-1.5,7.4-2.8c1.3-1.5,1.7-3.6,1.7-5.7c0-2.7-1.1-4.6-2.5-6.1
	c-1.2-1.3-4.2-3.2-9.8-3V536.3z"/>
<g id="XMLID_710_">
	<path id="XMLID_712_" class="st0" d="M174.5,535.3h-2.7v22.5h2.7V535.3z"/>
	<path id="XMLID_711_" class="st0" d="M172.7,536.7c0,0,5.4-0.7,9.9,2c4.3,2.6,4.6,7.9,4.6,9.3c0,2.2-1.5,6-4.5,7.5s-10,1-10,1v1.3
		c0,0,2.4,0,4,0c5.8-0.1,8-1.9,9.4-3.6c1.6-2,2.2-4.6,2.2-7.3c0-3.5-1.4-5.9-3.2-7.8c-1.6-1.6-5.4-4.1-12.6-3.8L172.7,536.7z"/>
</g>
<g id="XMLID_714_">
	<path id="XMLID_716_" class="st0" d="M521.5,535.3h-2.7v22.5h2.7V535.3z"/>
	<path id="XMLID_715_" class="st0" d="M519.7,536.7c0,0,5.4-0.7,9.9,2c4.3,2.6,4.6,7.9,4.6,9.3c0,2.2-1.5,6-4.5,7.5s-10,1-10,1v1.3
		c0,0,2.4,0,4,0c5.8-0.1,8-1.9,9.4-3.6c1.6-2,2.2-4.6,2.2-7.3c0-3.5-1.4-5.9-3.2-7.8c-1.6-1.6-5.4-4.1-12.6-3.8L519.7,536.7z"/>
</g>
<g id="XMLID_718_">
	<path id="XMLID_720_" class="st0" d="M754,535.3h-2.7v22.5h2.7V535.3z"/>
	<path id="XMLID_719_" class="st0" d="M752.2,536.7c0,0,5.4-0.7,9.9,2c4.3,2.6,4.6,7.9,4.6,9.3c0,2.2-1.5,6-4.5,7.5s-10,1-10,1v1.3
		c0,0,2.4,0,4,0c5.8-0.1,8-1.9,9.4-3.6c1.6-2,2.2-4.6,2.2-7.3c0-3.5-1.4-5.9-3.2-7.8c-1.6-1.6-5.4-4.1-12.6-3.8L752.2,536.7z"/>
</g>
<g id="XMLID_685_">
	<path id="XMLID_687_" class="st0" d="M625.5,535.3h-2.7v22.5h2.7V535.3z"/>
	<path id="XMLID_686_" class="st0" d="M624.7,536.3c0,0,4.2-0.6,7.7,1.6c3.4,2.1,3.6,6.2,3.6,7.3c0,1.7-1.2,4.7-3.5,5.9
		s-7.8,0.8-7.8,0.8v1c0,0,1.9,0,3.2,0c4.5-0.1,6.3-1.5,7.4-2.8c1.3-1.5,1.7-3.6,1.7-5.7c0-2.7-1.1-4.6-2.5-6.1
		c-1.2-1.3-4.2-3.2-9.8-3L624.7,536.3z"/>
</g>
<g id="XMLID_649_">
	<rect id="XMLID_648_" x="364.3" y="535.3" class="st0" width="2.7" height="22.5"/>
	<rect id="XMLID_647_" x="365" y="535.3" class="st0" width="10.5" height="0.9"/>
	<rect id="XMLID_646_" x="365" y="556.9" class="st0" width="10.5" height="0.9"/>
	<rect id="XMLID_642_" x="365" y="542.3" class="st0" width="11.5" height="0.9"/>
</g>
<g id="XMLID_651_">
	<rect id="XMLID_655_" x="539.5" y="535.3" class="st0" width="2.7" height="22.5"/>
	<rect id="XMLID_654_" x="540.2" y="535.3" class="st0" width="10.5" height="0.9"/>
	<rect id="XMLID_653_" x="540.2" y="556.9" class="st0" width="10.5" height="0.9"/>
	<rect id="XMLID_652_" x="540.2" y="542.3" class="st0" width="11.5" height="0.9"/>
</g>
<g id="XMLID_662_">
	<rect id="XMLID_666_" x="573" y="535.3" class="st0" width="2.7" height="22.5"/>
	<rect id="XMLID_664_" x="573.7" y="556.9" class="st0" width="10.5" height="0.9"/>
</g>
<polygon id="XMLID_87_" class="st0" points="605.9,553.7 605.9,556.4 596.6,538 596.6,535.3 "/>
<rect id="XMLID_85_" x="614.3" y="535.3" class="st0" width="2.7" height="22.5"/>
<rect id="XMLID_86_" x="596.6" y="537.2" class="st0" width="0.9" height="20.7"/>
<polygon id="XMLID_88_" class="st0" points="614.3,535.3 614.3,538.1 605.9,556.4 605.9,553.7 "/>
<g id="XMLID_722_">
	<rect id="XMLID_724_" x="815.8" y="535.3" class="st0" width="2.7" height="22.5"/>
	<rect id="XMLID_723_" x="810.1" y="535.3" class="st0" width="14.1" height="0.9"/>
</g>
<g id="XMLID_728_">
	<rect id="XMLID_730_" x="240.9" y="535.3" class="st0" width="2.7" height="22.5"/>
	<rect id="XMLID_729_" x="235.2" y="535.3" class="st0" width="14.1" height="0.9"/>
</g>
<rect id="XMLID_84_" x="317" y="550.3" class="st0" width="2.7" height="7.6"/>
<polygon id="XMLID_82_" class="st0" points="319.7,550.3 317,550.3 309.2,535.3 311.9,535.3 "/>
<polygon id="XMLID_83_" class="st0" points="326.2,535.3 327,535.3 319.7,550.3 318.8,550.3 "/>
<g id="XMLID_674_">
	<rect id="XMLID_676_" x="877.3" y="535.3" class="st0" width="2.7" height="22.5"/>
	<rect id="XMLID_675_" x="878" y="556.9" class="st0" width="10.5" height="0.9"/>
</g>
<g id="XMLID_656_">
	<rect id="XMLID_660_" x="650.3" y="535.3" class="st0" width="2.7" height="22.5"/>
	<rect id="XMLID_659_" x="651" y="535.3" class="st0" width="10.5" height="0.9"/>
	<rect id="XMLID_658_" x="651" y="556.9" class="st0" width="10.5" height="0.9"/>
	<rect id="XMLID_657_" x="651" y="542.3" class="st0" width="11.5" height="0.9"/>
</g>
<rect id="XMLID_35_" x="666.8" y="556.9" class="st0" width="14.8" height="0.9"/>
<rect id="XMLID_92_" x="667.5" y="535.3" class="st0" width="11.8" height="0.9"/>
<polygon id="XMLID_448_" class="st0" points="484.6,480.6 456.2,461.6 456.2,454.7 456.7,454.7 484.6,474.4 "/>
<g id="XMLID_23_">
	<path id="XMLID_27_" class="st0" d="M213.4,547.5c0.2,2.5,1.1,4.8,3,6.7c1.2,1.3,2.6,2.2,4.3,2.5c-2.8-0.8-4.5-3.7-4.8-6.3
		c-0.5-4.2-0.3-5.4,0-7.8c0.3-2.2,2-5.4,4.7-6.3c0.1-0.5-0.2-0.3-0.5-0.2c-1.2,0.5-2.7,1.7-3.6,2.7
		C214.1,541.3,213.1,544.2,213.4,547.5z"/>
	<path id="XMLID_26_" class="st0" d="M221.1,536c-0.8,0-0.7,0.1-0.5,0.5c0.7-0.2,1.4-0.3,2.2-0.3c2.3,0,4.8,1.2,6.6,3.3l0.7-0.5
		c-1.5-1.9-3.4-3.2-5.8-3.6c-0.7-0.1-1.4-0.1-2-0.1C223,535.7,221.7,535.9,221.1,536z"/>
	<path id="XMLID_25_" class="st0" d="M230.5,551.7c0,0-1.2,2-2.1,2.9c-1.5,1.4-3.2,2.3-5.3,2.4c-0.8,0-1.7,0-2.4-0.2
		c0.1,0.2,1,0.4,1.7,0.4c1,0,0.4,0.3-0.5,0.7c0.4,0,0.8,0,1.3,0c2.3-0.1,4.2-1,5.8-2.6c0.8-0.8,2.1-2.7,2.1-2.7L230.5,551.7z"/>
	<path id="XMLID_24_" class="st0" d="M222.7,557.1c-0.7,0-1.4-0.1-2-0.3c-1.6-0.4-3-1.3-4.1-2.5c-1.7-1.9-2.7-4.1-2.9-6.7
		c-0.2-3.3,0.7-6.3,2.9-8.7c1.1-1.2,2.4-2,3.9-2.4c0.7-0.2,1.4-0.4,2.1-0.4c0.6,0,0.4-0.3-0.4-0.8c-1.8,0-3.5,0.7-5,1.9
		c-2.3,1.7-3.6,4-4.2,6.8c-0.2,0.9-0.2,1.7-0.3,2.7c0,3.1,1,5.9,3.1,8.2c1.7,1.8,3.7,2.9,6.1,3.1
		C223.3,557.4,223.7,557.1,222.7,557.1z"/>
</g>
<g id="XMLID_28_">
	<path id="XMLID_32_" class="st0" d="M428,547.5c0.2,2.5,1.1,4.8,3,6.7c1.2,1.3,2.6,2.2,4.3,2.5c-2.8-0.8-4.5-3.7-4.8-6.3
		c-0.5-4.2-0.3-5.4,0-7.8c0.3-2.2,2-5.4,4.7-6.3c0.1-0.5-0.2-0.3-0.5-0.2c-1.2,0.5-2.7,1.7-3.6,2.7
		C428.7,541.3,427.7,544.2,428,547.5z"/>
	<path id="XMLID_31_" class="st0" d="M435.7,536c-0.8,0-0.7,0.1-0.5,0.5c0.7-0.2,1.4-0.3,2.2-0.3c2.3,0,4.8,1.2,6.6,3.3l0.7-0.5
		c-1.5-1.9-3.4-3.2-5.8-3.6c-0.7-0.1-1.4-0.1-2-0.1C437.6,535.7,436.3,535.9,435.7,536z"/>
	<path id="XMLID_30_" class="st0" d="M445.1,551.7c0,0-1.2,2-2.1,2.9c-1.5,1.4-3.2,2.3-5.3,2.4c-0.8,0-1.7,0-2.4-0.2
		c0.1,0.2,1,0.4,1.7,0.4c1,0,0.4,0.3-0.5,0.7c0.4,0,0.8,0,1.3,0c2.3-0.1,4.2-1,5.8-2.6c0.8-0.8,2.1-2.7,2.1-2.7L445.1,551.7z"/>
	<path id="XMLID_29_" class="st0" d="M437.3,557.1c-0.7,0-1.4-0.1-2-0.3c-1.6-0.4-3-1.3-4.1-2.5c-1.7-1.9-2.7-4.1-2.9-6.7
		c-0.2-3.3,0.7-6.3,2.9-8.7c1.1-1.2,2.4-2,3.9-2.4c0.7-0.2,1.4-0.4,2.1-0.4c0.6,0,0.4-0.3-0.4-0.8c-1.8,0-3.5,0.7-5,1.9
		c-2.3,1.7-3.6,4-4.2,6.8c-0.2,0.9-0.2,1.7-0.3,2.7c0,3.1,1,5.9,3.1,8.2c1.7,1.8,3.7,2.9,6.1,3.1
		C437.8,557.4,438.3,557.1,437.3,557.1z"/>
</g>
</svg>
