<?xml version="1.0" encoding="utf-8"?>
<!-- Generator: Adobe Illustrator 19.0.0, SVG Export Plug-In . SVG Version: 6.00 Build 0)  -->
<svg version="1.1" id="Capa_1" xmlns="http://www.w3.org/2000/svg" xmlns:xlink="http://www.w3.org/1999/xlink" x="0px" y="0px"
	 viewBox="-253 399.4 88.8 42.5" style="enable-background:new -253 399.4 88.8 42.5;" xml:space="preserve">
<style type="text/css">
	.st0{fill:none;stroke:#404182;stroke-width:0.5081;stroke-miterlimit:10;}
	.st1{fill:#FFFFFF;stroke:#3B3A7B;stroke-width:0.5081;stroke-miterlimit:10;}
	.st2{fill:#3B3A7B;}
	.st3{clip-path:url(#SVGID_2_);}
	.st4{fill:#9B7C3F;}
	.st5{fill:none;stroke:#211915;stroke-width:0.3387;stroke-miterlimit:10;}
	.st6{clip-path:url(#SVGID_4_);fill:none;stroke:#211915;stroke-width:0.3387;stroke-miterlimit:10;}
	.st7{clip-path:url(#SVGID_6_);fill:none;stroke:#211915;stroke-width:0.3387;stroke-miterlimit:10;}
	.st8{fill:none;stroke:#3B3A7B;stroke-width:0.5081;stroke-miterlimit:10;}
	.st9{fill:#FFFFFF;stroke:#404182;stroke-width:0.5081;stroke-miterlimit:10;}
</style>
<g id="XMLID_213_">
	<path id="XMLID_3463_" class="st0" d="M-238.2,433.7c-1.8-0.9-6.3-2.5-8.9-2c-3.6,0.7-4.1,5.5,0.6,5.4c3.3,0,6.4-1.5,8.3-2.4
		C-237.8,434.6-237.8,434-238.2,433.7z"/>
	<path id="XMLID_2_" class="st1" d="M-210.5,407.8c0.4-5.2-0.9-7.7-5.4-8c-4.4-0.3-9,4.7-11.4,9.9c-2.2,4.7-6.7,18.9-7.2,20.6
		c0,0.1-0.1,0.1-0.2,0.1c-0.9-0.5-5.6-2.5-9.6-2.8c-4.3-0.3-8.5,2.2-8.5,6.5c0,4.5,4.4,6.1,8.8,5.6c5-0.6,8.4-2.6,9.4-3.3
		c0.2-0.1,0.4-0.1,0.6-0.1c1.4,0.6,7.3,2.8,14.1,3.8c7.9,1.3,20.9,1.5,25.6,1.5c4.2,0,14.6-0.7,16.7-0.9c0.2,0,0.5-0.2,0.6-0.4
		l2.7-5.6c0.1-0.1,0-0.3-0.2-0.3c-2.3,0.1-17.2,1-24.7,1.2c-11.1,0.2-27.8-3.3-31.1-4.2c-0.1,0-0.2-0.2-0.1-0.3
		c0.8-1.5,4.9-9.9,5.6-12.6c0.8-2.9,4.2-12.2,6-13.8s4-1.6,3.9,0.7c0,0.7-0.3,2-0.7,3.4"/>
	<path id="XMLID_3469_" class="st2" d="M-211.6,405.5c-0.1-2.5-0.7-4.7-4.5-4.6c-3.5,0.1-5.8,2.5-7.4,4.6c-1.6,2.1-4,7.8-4.9,10.5
		c-0.9,2.6-4.8,14.6-5.6,15.9c0,0.1-0.1,0.1-0.2,0c-0.8-0.4-5.7-3.1-9.1-3.2c-3.3-0.2-6.7,0.9-8,3.8c-1,2.4-0.2,4.5,2.5,5.7
		s7.2,0.2,9.6-0.7c1.9-0.7,3.8-1.8,4.5-2.3c0.2-0.1,0.4-0.1,0.6-0.1c1.4,0.5,6.8,2.4,13.7,3.6c8,1.4,23.1,1.6,27.2,1.5
		c3.8-0.1,14-0.6,15.2-0.7c0.1,0,0.1,0,0.2-0.1l2.1-3.8c0-0.1,0-0.1-0.1-0.1c-1.5,0.1-14.8,1.3-19.9,1.4c-5.4,0.1-19.2-1.2-25.7-2.3
		c-6-1-10-2.2-10.6-2.3c0,0-0.1-0.1,0-0.1c0.5-0.8,4.5-8.6,5.4-11.6c1-3.2,4.1-11.1,5.4-13.5c1.2-2.4,3.6-4.7,5.6-4.3
		s2.1,2.3,1.8,4.1c-0.1,0.5-0.3,1.2-0.4,1.9h2.2C-211.8,407.5-211.6,406.3-211.6,405.5z M-238.2,434.8c-1.9,0.9-4.9,2.4-8.3,2.4
		c-4.6,0-4.1-4.7-0.6-5.4c2.6-0.5,7.1,1.1,8.9,2C-237.8,434-237.8,434.6-238.2,434.8z"/>
	<path id="XMLID_3416_" class="st2" d="M-166.6,421.6c0,0,0-0.9-0.2-1c-0.2-0.2-1.1-0.4-1.3-0.2c-0.2,0.2-0.2,1.2-0.2,1.2H-166.6z"
		/>
	<path id="XMLID_3419_" class="st2" d="M-166.4,432.2h-0.6c0,0,0-1.6,0-1.8c0-0.5-0.7-0.7-0.7,0c0,0.4,0,1.3,0,1.5
		c0,0.4-0.7,0.7-1.4,0.7c-0.7,0-1.6-0.5-1.6-1.3c0-0.8,0-1.8,0-1.8h0.9c0,0-0.1,1.1-0.1,1.4c0,0.3,0.9,0.6,0.9,0.2s0.3-1.9,0.5-2
		c0.2-0.2,1.2-0.1,1.5,0.1c0.3,0.2,0.7,0.7,0.7,1.4C-166.3,431.3-166.4,432.2-166.4,432.2z"/>
	<g id="XMLID_430_">
		<g>
			<defs>
				<polygon id="SVGID_1_" points="-197.8,441.2 -174.1,415.3 -179,409.8 -197.8,409.8 -218.6,409.8 -223.4,415.3 				"/>
			</defs>
			<clipPath id="SVGID_2_">
				<use xlink:href="#SVGID_1_"  style="overflow:visible;"/>
			</clipPath>
			<g id="XMLID_3453_" class="st3">
				<g id="XMLID_3451_">
					<polygon id="XMLID_429_" class="st4" points="-197.8,441.2 -174.1,415.3 -179,409.8 -197.8,409.8 -218.6,409.8 -223.4,415.3 
											"/>
				</g>
				<polygon id="XMLID_3436_" class="st5" points="-208.1,420.3 -197.8,441.2 -197.8,420.3 				"/>
				<polygon id="XMLID_3437_" class="st5" points="-218.4,420.3 -208.1,420.3 -197.8,441.2 				"/>
				<polygon id="XMLID_3438_" class="st5" points="-197.8,420.3 -202.9,415.5 -208.1,420.3 				"/>
				<polygon id="XMLID_3439_" class="st5" points="-208.1,420.3 -213.2,415.5 -218.4,420.3 				"/>
				<polygon id="XMLID_3446_" class="st5" points="-202.9,415.5 -208.6,409.9 -213.2,415.5 				"/>
				<polygon id="XMLID_3448_" class="st5" points="-193.3,415.5 -197.8,409.9 -202.9,415.5 				"/>
				<polygon id="XMLID_3449_" class="st5" points="-183.8,415.5 -189,409.9 -193.3,415.5 				"/>
				<polygon id="XMLID_3450_" class="st5" points="-174,415.5 -178.9,409.9 -183.8,415.5 				"/>
				<polygon id="XMLID_3447_" class="st5" points="-213.2,415.5 -218.7,409.9 -223.2,415.5 				"/>
				<polygon id="XMLID_3444_" class="st5" points="-179.1,420.3 -183.8,415.5 -188.4,420.3 				"/>
				<polygon id="XMLID_3443_" class="st5" points="-188.4,420.3 -193.3,415.5 -197.8,420.3 				"/>
				<polygon id="XMLID_3441_" class="st5" points="-223.2,415.5 -218.2,420.3 -213.2,415.5 				"/>
				<polygon id="XMLID_3442_" class="st5" points="-202.9,415.5 -197.8,420.3 -193.3,415.5 				"/>
				<polygon id="XMLID_3440_" class="st5" points="-213.2,415.5 -208.1,420.3 -202.9,415.5 				"/>
			</g>
		</g>
		<g>
			<defs>
				<polygon id="SVGID_3_" points="-197.8,441.2 -174.1,415.3 -179,409.8 -197.8,409.8 -218.6,409.8 -223.4,415.3 				"/>
			</defs>
			<clipPath id="SVGID_4_">
				<use xlink:href="#SVGID_3_"  style="overflow:visible;"/>
			</clipPath>
			<line id="XMLID_3455_" class="st6" x1="-197.8" y1="420.3" x2="-197.8" y2="409.8"/>
		</g>
		<g>
			<defs>
				<polygon id="SVGID_5_" points="-197.8,441.2 -174.1,415.3 -179,409.8 -197.8,409.8 -218.6,409.8 -223.4,415.3 				"/>
			</defs>
			<clipPath id="SVGID_6_">
				<use xlink:href="#SVGID_5_"  style="overflow:visible;"/>
			</clipPath>
			<line id="XMLID_3456_" class="st7" x1="-188.4" y1="420.3" x2="-197.8" y2="441.2"/>
		</g>
		<g>
			<polygon id="XMLID_3445_" class="st5" points="-197.8,441.2 -174.1,415.3 -179,409.8 -197.8,409.8 -218.6,409.8 -223.4,415.3 			
				"/>
		</g>
	</g>
	<g id="XMLID_3417_">
		<path id="XMLID_3426_" class="st1" d="M-173.2,424.8c0-0.9-2.3-1-2.3-1s-0.4,0.7-0.6,0.7c-0.2,0-0.6-1-0.6-1l-3,0.9v0.7
			c-0.5-0.4-1.2-0.7-2.1-0.8c-0.9-0.1-1.8,0.6-1.9,0.9c-0.2,0.3-0.6,0.4-0.6,0.1c-0.1-0.3-0.8-2.8-1.2-3c-0.6-0.2-2.6,0.5-3.1,0.8
			c-0.5,0.4-0.9-0.3-1.1-0.6c-0.2-0.4-0.5-1-1.7-0.9c-1.1,0.1-2.6,1.9-3,2.3c-0.4,0.5-1.2-0.5-1.5-1c-0.3-0.5-1-1.6-2.6-1.2
			c-1.6,0.4-3.1,3.7-3.3,4.7s0.1,2.3,1.5,2.4s2.2-1,2.2-1l-0.3,3l3.3-0.3c1.3-4.7,2.3-4.9,2.3-4.9v4.9h-1c0,0,1.6,2.8,5.1,2.7
			s4.3-3.4,4.3-3.4s0.7,0.4,1.4,0.4c0.8,0,1.5-0.6,1.5-0.6v0.8c0,0,1.4,0,1.6,0c0.2,0,0.7,0.3,1,0.3c0.3,0,1.8-1,1.8-1
			s0.1,0.9,0.9,1.1c0.8,0.2,2-0.4,2.4-1.6c0.4-1.2-0.7-2.5-0.8-2.6C-174.7,426.5-173.2,425.7-173.2,424.8z M-189.2,430.3v-3.6
			l1.3-1.3l0.9,4.7L-189.2,430.3z"/>
	</g>
	<path id="XMLID_440_" class="st1" d="M-223.8,431.9v-0.8c0,0-1.4,0.6-2.4,0.6v-3.4l-1.1-0.2v-2.5h1.5c0,0-1-1.1-0.5-2.5
		s2.4-0.9,2.8-0.5c0.4,0.5,0.8,1.1,0.7,2.6c0,0,1-0.8,2.8-0.8s2,0.6,2,0.6s0.6-0.7,1.4-0.6c0.8,0,1.2,0.5,1.9,0.6
		c0.6,0,2-0.5,2.6-0.9v1.2c0,0,0.9-1.1,1.3-1.1c0.3,0,1.4,0.7,1.6,1.5l0.7-0.5c0,0-1.3-1.4-0.5-2.4s2.3-0.8,2.8-0.2s0.4,1.7,0.4,3
		c0,1.3,0,5.3,0,5.3l-3.4,0.5v-2.2l-1.7,2l-0.9-0.3l-0.4,3.4l-3.3-0.4l0.3-3.3l-3.3,2.5l0.1-2.1l-2.3,1l-0.2-1L-223.8,431.9z"/>
	<path id="XMLID_3365_" class="st8" d="M-167.6,433c0.2-0.1,1.1,0.1,1.5,0c0.4-0.1,0.6-1.3,0.6-2.1c0-0.8-0.4-1.7-0.4-2.1
		c0-0.4,0.3-1.1,0.4-1.3c0.1-0.2-0.4-1.7-0.2-1.8s0.8-0.5,0.8-0.5l-0.7-1h1l-1-2.1c0,0,0-1.6,0-1.9s-1.6-1-2.5-0.6
		c-1,0.4-0.9,1.8-0.9,1.8s-2.2,0.9-2.5,1.3c-0.2,0.2-0.3,2.4-0.2,2.5c0.1,0.1,2.8,1.8,2.8,1.8l-0.6,1.5h-2.3c0,0-0.4,2.5,0.3,3.6
		C-171,433.1-169.3,434-167.6,433z"/>
	<path id="XMLID_3383_" class="st9" d="M-179,425.8l0.2,2.5c0,0,1-0.9,1-1.1S-179,425.8-179,425.8z"/>
	<path id="XMLID_3387_" class="st0" d="M-198,426.6c0,0-0.2-1.9-0.6-1.9c-0.4-0.1-0.9,1.9-0.9,1.9H-198z"/>
	<path id="XMLID_3367_" class="st2" d="M-223.7,430.4v-5.1c0,0-1.9,1-2.5,1l-0.3,0.8h0.8v3.7L-223.7,430.4z"/>
	<path id="XMLID_3368_" class="st2" d="M-220.8,430.3c0,0,0-2.6,0-2.9c0-0.3,0.9-0.8,0.9-0.2s0,3.6,0,3.6l1.6-0.6
		c0,0,0.1-2.4,0.1-2.8c0-0.4,0.6-0.9,0.8-0.3c0.2,0.5,0.3,2.1,0,4l1.9-1.2c0,0,0.2-2.8,0.2-3.3s-1-1.3-1.4-1.3c-0.4,0-1.2,1-1.3,1
		s-1.3-0.8-1.6-0.8c-0.3,0-0.8,0.6-0.9,0.6c-0.1-0.1,0-1,0-1s-1,0.8-1.1,0.8c-0.1,0-1-0.3-1-0.3l-0.2,5.2L-220.8,430.3z"/>
	<ellipse id="XMLID_3364_" class="st2" cx="-224.8" cy="423.8" rx="1.1" ry="0.8"/>
	<ellipse id="XMLID_3375_" class="st2" cx="-207.6" cy="423.7" rx="1.1" ry="0.8"/>
	<path id="XMLID_3374_" class="st2" d="M-206.5,430.1l-1.9,0.4l-0.1-3.5l-0.7-0.2l0.1-0.6c0,0,2.4-0.7,2.6-1.2
		C-206.5,425-206.5,430.1-206.5,430.1z"/>
	<g id="XMLID_3373_">
		<path id="XMLID_3379_" class="st2" d="M-209.8,426.3c-0.2-0.4-0.9-1-1.2-1.1s-1.6,0.9-1.6,0.9l-0.2-0.9c0,0-0.7,0.4-0.9,0.4
			s-1.1-0.1-1.1-0.1s0.5,1.8,0.5,2.5c0,0.7-0.4,5.1-0.4,5.1h1.9l0.5-3.2l1.2,0.5c0,0,1.1-1.4,1.2-2.2
			C-209.7,427.3-209.7,426.7-209.8,426.3z M-211.5,429.2c-0.2,0.1-1.3-0.5-1.3-0.5s0-1.5,0-1.6s0.7-0.6,0.8-0.6s0.3,0.5,0.4,0.8
			C-211.4,427.7-211.5,429.2-211.5,429.2z"/>
	</g>
	<path id="XMLID_3376_" class="st2" d="M-190,429.5l-1.8,0.4c0,0-0.1-4.1-0.2-4.9c0-0.9-0.2-1.4-0.8-1.1c-0.6,0.3-2.3,3.8-2.8,5.5
		h-1.9c0,0,0.4-2.3,0.3-3.5c-0.1-1.2-0.6-2.4-1.3-2.3s-1.7,1.8-1.8,2.8c-0.1,1,0.1,1.2,0.4,1.2c0.3,0,0.6,0,0.6,0v0.2
		c0,0-0.9,0.3-1.4,0.2c-0.5-0.1-0.2-1.4,0-2.1c0.2-0.7,1.4-2.9,2-3.3c0.6-0.4,1.4,0,1.8,0.5c0.4,0.5,1.8,2.4,1.9,2.4
		s0.9-1.1,1.4-1.6c0.8-0.8,2-1.4,2.5-1.5c0.5-0.1,0.8,0.3,0.8,0.6c0,0.3,0,1.7,0,2c0,0.3,0.4,0.4,0.7,0c0.3-0.4,1-1.4,1.6-1.6
		c0.6-0.2,1.9-0.5,2.2,0s0.9,2.7,0.7,4.2c-0.2,1.5-0.4,3.3-1.7,4c-1.2,0.7-3.7,0.6-4.3,0.5c-0.6-0.1-1.3-0.8-1.3-0.8
		s5.6-0.5,5.8-0.7c0.2-0.2-0.2-3.7-0.5-4.5c-0.3-0.8-0.5-1.9-1.1-1.7c-0.6,0.2-1.9,2.1-1.9,2.1L-190,429.5z"/>
	<g id="XMLID_3382_">
		<path id="XMLID_3386_" class="st2" d="M-179.8,426c0,0-0.9-1-2.1-1c-1.1,0-1.9,0.8-2.1,1.8c-0.2,0.8,0,2.5,0.8,2.5
			c0.8-0.1,1.4-1.1,1.4-1.1l0.9,0.1l0.2,1.2h1.1L-179.8,426z M-181.8,427.7c-0.5,0.1-0.8-0.2-0.9-0.5c-0.1-0.3,0.2-0.9,0.7-0.9
			c0.4,0,0.9,0.4,1,0.6C-180.9,427.1-181.1,427.6-181.8,427.7z"/>
	</g>
	<path id="XMLID_3381_" class="st2" d="M-176.8,428.5c0.1,0,0.5,1.2,1.1,1.2c0.5,0,1.1-0.3,0.9-1.2c-0.2-0.9-0.8-1.7-0.7-2
		c0.1-0.3,1.1-1.7,1.1-1.7h-0.7c0,0-0.4,1-1,1c-0.6-0.1-0.9-0.4-0.9-1.2l-1.6,0.4c0,0,1.5,1.9,1.6,2.1s-0.2,0.7-0.3,0.9
		c-0.2,0.2-1.2,1.3-1.5,1.5c-0.3,0.2-0.1,0.4,0.2,0.2C-178.3,429.5-177.2,428.4-176.8,428.5z"/>
	<path id="XMLID_3420_" class="st2" d="M-166.6,427.9c0,0,0-0.9-0.2-1c-0.2-0.1-1.1-0.4-1.3-0.2c-0.2,0.2-0.2,1.2-0.2,1.2H-166.6z"
		/>
	<g id="XMLID_3421_">
		<path id="XMLID_3424_" class="st2" d="M-166.4,422.6c0,0-2.8,0.1-3.3,0.1s-1.1,0.8-1.1,1.6c0,0.8,0.6,1.4,1.7,1.5s2.4-0.1,2.5-0.5
			s-1-1.1-1-1.1l-0.1-0.6h1.3V422.6z M-168,424.5c0,0.3-0.5,0.3-0.9,0.3c-0.5,0-0.9-0.3-0.9-0.6s0.4-0.6,0.9-0.6
			C-168.3,423.7-167.9,424.2-168,424.5z"/>
	</g>
	<path id="XMLID_438_" class="st1" d="M-210.7,408.9c-0.7,3.4-1.7,6.2-2,6.8c0,0.1-0.1,0.1-0.2,0.1l-4.8-0.2c-0.1,0-0.1-0.1-0.1-0.2
		c0.3-0.7,1.4-3.8,2.2-6.5"/>
	<path id="XMLID_3466_" class="st2" d="M-216.2,414.6l2.7,0.1c0.1,0,0.1,0,0.1-0.1c0.2-0.6,0.9-3.4,1.4-5.9l-2.1-0.2
		C-214.6,410.6-215.4,413.4-216.2,414.6L-216.2,414.6z"/>
	<line id="XMLID_3366_" class="st8" x1="-215.5" y1="408.4" x2="-215.7" y2="409.1"/>
	<path id="XMLID_3389_" class="st1" d="M-239.9,434.3C-239.8,434.3-239.8,434.2-239.9,434.3c-0.5-0.2-3.7-1.6-5.2-1.6
		c-1.2,0-3.4,0.1-3.6,1.7s2.5,2,3.6,1.9C-242.8,436-240.4,434.5-239.9,434.3z"/>
	<path class="st1" d="M-210.8,409.6c0,0,0.3-1.3,0.3-2"/>
</g>
</svg>
